<svg width="512" height="512" viewBox="0 0 512 512" fill="none" xmlns="http://www.w3.org/2000/svg">
<g clip-path="url(#clip0)">
<path d="M450.182 441.905L230.204 60.8918L223.071 60.9108L3.63795 440.979C-6.70005 458.884 6.22195 481.266 26.8979 481.266H438.164C452.054 474.498 458.747 456.739 450.182 441.905Z" fill="#DA4A54"/>
<path d="M508.362 440.979L279.26 44.1629C268.922 26.2579 243.078 26.2579 232.741 44.1629L223.071 60.9109L442.181 440.42C452.519 458.325 439.597 481.266 418.921 481.266H485.102C505.777 481.266 518.699 458.884 508.362 440.979Z" fill="#DA4A54"/>
<path d="M250.977 96.8708L57.4089 432.14C55.6179 435.242 57.8569 439.118 61.4379 439.118H448.573L250.977 96.8708Z" fill="#F9F6F9"/>
<path d="M271.993 388.981C271.993 397.814 264.833 404.974 256 404.974C247.167 404.974 240.007 397.814 240.007 388.981C240.007 380.148 247.167 372.988 256 372.988C264.832 372.989 271.993 380.149 271.993 388.981Z" fill="#DA4A54"/>
<path d="M256.101 346.502C247.324 346.502 240.209 339.387 240.209 330.61V190.068C240.209 181.291 247.324 174.176 256.101 174.176C264.878 174.176 271.993 181.291 271.993 190.068V330.61C271.993 339.387 264.878 346.502 256.101 346.502Z" fill="#DA4A54"/>
</g>
<defs>
<clipPath id="clip0">
<rect width="512" height="512" fill="white"/>
</clipPath>
</defs>
</svg>
