<svg width="10" height="24" viewBox="0 0 10 24" fill="none" xmlns="http://www.w3.org/2000/svg">
<path d="M6.55859 19.3125C6.92188 19.1875 7.40625 19.0039 8.01562 18.7656L8.21484 17.9375C8.10938 17.9883 7.94141 18.043 7.71094 18.1094C7.47656 18.1719 7.26953 18.2031 7.08594 18.2031C6.69141 18.2031 6.41406 18.1406 6.25781 18.0117C6.09766 17.8828 6.01953 17.6367 6.01953 17.2812C6.01953 17.1406 6.04297 16.9297 6.08984 16.6562C6.14062 16.3828 6.19531 16.1367 6.25781 15.9219L7.01562 13.2422C7.08984 12.9922 7.14062 12.7227 7.16797 12.4297C7.19531 12.1367 7.20703 11.9297 7.20703 11.8125C7.20703 11.25 7.00781 10.7891 6.61328 10.4375C6.21875 10.0859 5.65234 9.90625 4.92188 9.90625C4.51953 9.90625 4.08594 9.98047 3.63281 10.125C3.17578 10.2695 2.69922 10.4414 2.20312 10.6445L2 11.4727C2.14844 11.418 2.32422 11.3594 2.53125 11.2969C2.73828 11.2383 2.94141 11.207 3.13672 11.207C3.53516 11.207 3.80469 11.2734 3.94922 11.4102C4.08984 11.543 4.16016 11.7852 4.16016 12.125C4.16016 12.3164 4.14062 12.5273 4.09375 12.7578C4.04688 12.9883 3.98828 13.2305 3.92188 13.4883L3.16016 16.1758C3.09375 16.4609 3.04297 16.7109 3.01562 16.9375C2.98438 17.1602 2.96875 17.3789 2.96875 17.5938C2.96875 18.1484 3.17188 18.6055 3.57812 18.9609C3.98828 19.3203 4.5625 19.5 5.29688 19.5C5.77734 19.5 6.19531 19.4375 6.55859 19.3125Z" fill="#3A81BE"/>
<path d="M6.60547 8.37891C7.10156 8.37891 7.52734 8.21484 7.87891 7.88672C8.23438 7.55859 8.41016 7.16016 8.41016 6.69531C8.41016 6.23047 8.23438 5.82812 7.87891 5.49609C7.52734 5.16406 7.10156 5 6.60547 5C6.10938 5 5.67969 5.16406 5.32422 5.49609C4.97266 5.82812 4.79297 6.23047 4.79297 6.69531C4.79297 7.16016 4.96875 7.55859 5.32422 7.88672C5.67969 8.21484 6.10938 8.37891 6.60547 8.37891Z" fill="#3A81BE"/>
</svg>
